<?xml version="1.0"?>
<svg width="512" height="512"
  xmlns="http://www.w3.org/2000/svg"
  xmlns:svg="http://www.w3.org/2000/svg" viewBox="0 0 512 512">
  <g>
    <defs>
      <linearGradient id="g12" x1="0.25" x2="1" y1="-0.25" y2="0.75">
        <stop offset="0" stop-color="#eac93d"/>
        <stop offset="1" stop-color="#d88119"/>
      </linearGradient>
    </defs>
    <path fill="none" fill-opacity="0" stroke="#1a4182" stroke-width="16" d="m167,272.13a19.78,19.78 0 0 1 7.02,-15.13l69.22,-59.33a19.78,19.78 0 0 1 25.51,0l69.22,59.33a19.78,19.78 0 0 1 7.02,15.13l0,89a19.78,19.78 0 0 1 -19.78,19.78l-138.44,0a19.78,19.78 0 0 1 -19.78,-19.78l0,-89l0.01,0z" />
    <rect fill="#1a4182" height="24" width="24" x="228" y="292"/>
    <rect fill="#1a4182" height="24" width="24" x="260" y="292"/>
    <rect fill="#1a4182" height="24" width="24" x="228" y="324"/>
    <rect fill="#1a4182" height="24" width="24" x="260" y="324"/>
    <path fill="url(#g12)" d="m242.7,136.5q6.6,-0.5 13.3,-0.5q6.7,0 13.3,0.5l-13.3,-82.5l-13.3,82.5zm44,2.4c8.7,1.7 17.2,4.1 25.3,7.1l13.8,-81.4l-39.1,74.3zm42,14.5c7.7,3.9 14.9,8.5 21.7,13.6l38.5,-71.7l-60.2,58.1zm36.4,26.1c5.9,5.8 11.2,12 16.1,18.6l57.7,-54.9l-73.8,36.3zm27.1,36.2c3.6,6.9 6.6,14.1 9.1,21.5l69.7,-33.7l-78.8,12.2zm14.3,43.5q1.5,10.1 1.5,20.7q0,0.7 0,1.4l74,-11l-75.5,-11.1zm-302.4,22.2q-0.1,-0.7 -0.1,-1.5q0.1,-10.5 1.6,-20.7l-75.6,11.2l74.1,11zm6.8,-44.1c2.4,-7.5 5.5,-14.6 9.1,-21.5l-78.8,-12.2l69.7,33.7zm20.1,-39.2c4.8,-6.6 10.2,-12.8 16.1,-18.5l-73.8,-36.4l57.7,54.9zm30.7,-31.1c6.8,-5.1 14.1,-9.6 21.7,-13.6l-60.2,-58.1l38.5,71.7zm38.4,-20.9c8.1,-3.1 16.6,-5.5 25.3,-7.2l-39.1,-74.3l13.8,81.5z" />
    <path fill="none" stroke="url(#g12)" stroke-linecap="square" stroke-width="16" d="m112.3,341c-6.6,-16.6 -10.3,-34.6 -10.3,-53.5c0,-82.1 69.3,-148.5 155,-148.5c85.7,0 155,66.4 155,148.5c0,18.9 -3.7,36.9 -10.3,53.5" />
  </g>
</svg>
